<?xml version="1.0" encoding="UTF-8"?>
<svg id="Layer_2" data-name="Layer 2" xmlns="http://www.w3.org/2000/svg" viewBox="0 0 1500 500">
  <defs>
    <style>
      .cls-1 {
        fill: #3798f3;
      }

      .cls-2 {
        fill: #fff;
      }

      .cls-3 {
        fill: #0c3ea9;
      }

      .cls-4 {
        fill: #2a77dd;
      }
    </style>
  </defs>
  <path class="cls-2" d="M563.72,432.41l-19.12-44.49h-15.18v44.49h-41.99v-138.66h74.01c32.43,0,49.89,21.62,49.89,47.61,0,23.91-13.93,36.59-24.95,41.99l25.15,49.06h-47.81ZM554.99,328.68h-25.57v24.32h25.57c7.07,0,13.72-4.57,13.72-12.27s-6.65-12.06-13.72-12.06Z"/>
  <path class="cls-2" d="M709.66,432.41l-5.4-17.88h-53.22l-5.41,17.88h-45.53l51.14-138.66h52.8l51.14,138.66h-45.53ZM677.64,330.75l-15.8,48.85h31.6l-15.8-48.85Z"/>
  <path class="cls-2" d="M749.36,432.41v-138.66h84.19c28.69,0,41.16,19.13,41.16,35.34,0,17.25-10.19,28.9-23.7,31.81,14.97,2.29,26.4,16.01,26.4,33.89,0,19.33-13.1,37.63-40.95,37.63h-87.1ZM791.35,345.31h32.43c4.37,0,8.32-3.95,8.32-8.94s-3.95-8.52-8.32-8.52h-32.43v17.46ZM791.35,398.32h33.68c6.03,0,9.77-4.16,9.77-9.35s-3.74-9.56-9.77-9.56h-33.68v18.92Z"/>
  <path class="cls-2" d="M880.95,432.41v-138.66h84.19c28.69,0,41.16,19.13,41.16,35.34,0,17.25-10.19,28.9-23.7,31.81,14.97,2.29,26.4,16.01,26.4,33.89,0,19.33-13.1,37.63-40.95,37.63h-87.1ZM922.94,345.31h32.43c4.37,0,8.31-3.95,8.31-8.94s-3.95-8.52-8.31-8.52h-32.43v17.46ZM922.94,398.32h33.68c6.03,0,9.77-4.16,9.77-9.35s-3.74-9.56-9.77-9.56h-33.68v18.92Z"/>
  <path class="cls-2" d="M1012.53,432.41v-138.66h41.99v138.66h-41.99Z"/>
  <path class="cls-2" d="M1093.4,432.41v-102.07h-37.21v-36.59h116.21v36.59h-37v102.07h-41.99Z"/>
  <path class="cls-2" d="M59.2,432.41v-138.66h56.96c23.28,0,38.25,13.51,38.25,35.34,0,17.46-11.85,29.31-24.32,31.81,14.76,2.29,27.03,17.67,27.03,34.09,0,23.08-14.97,37.42-39.71,37.42h-58.21ZM71.05,355.91h43.66c17.88,0,27.23-11.23,27.23-25.57s-9.35-25.78-27.23-25.78h-43.66v51.35ZM71.05,421.6h44.49c18.29,0,29.1-10.6,29.1-27.44,0-14.14-9.77-27.44-29.1-27.44h-44.49v54.88Z"/>
  <path class="cls-2" d="M173.53,432.41v-138.66h11.85v127.85h67.15v10.81h-79Z"/>
  <path class="cls-2" d="M258.97,293.75h12.06v85.23c0,28.06,14.76,45.11,41.99,45.11s41.99-17.05,41.99-45.11v-85.23h12.06v85.44c0,34.3-18.29,55.71-54.05,55.71s-54.05-21.62-54.05-55.71v-85.44Z"/>
  <path class="cls-2" d="M388.27,432.41v-138.66h87.94v10.81h-76.09v51.35h74.63v10.81h-74.63v54.88h76.09v10.81h-87.94Z"/>
  <polygon class="cls-3" points="1305.1 56.25 1171.37 99.09 1214.55 101.24 1326.68 67.75 1305.1 56.25"/>
  <polygon class="cls-1" points="1214.55 101.24 1171.37 99.09 1078.52 172.83 1160.59 186.84 1250.74 166.59 1258.75 136.36 1376.99 103.38 1326.68 67.75 1214.55 101.24"/>
  <polygon class="cls-3" points="1177.05 227.82 1160.59 186.84 1078.52 172.83 1177.05 227.82"/>
  <polygon class="cls-4" points="1202.29 290.7 1250.74 166.59 1160.59 186.84 1202.29 290.7"/>
  <polygon class="cls-1" points="1179.4 349.34 1244.11 321.68 1250.74 166.59 1179.4 349.34"/>
  <polygon class="cls-4" points="1417.89 365.21 1380.23 236.47 1250.74 166.59 1244.78 306.04 1337.27 418.77 1417.89 365.21"/>
  <polygon class="cls-1" points="1380.23 236.47 1394.81 286.33 1433.56 249.41 1398.47 215.28 1380.23 236.47"/>
  <polygon class="cls-1" points="1205.83 429.92 1337.27 418.77 1283.9 353.71 1205.83 429.92"/>
  <polygon class="cls-3" points="1283.89 353.71 1266.35 332.33 1213.68 384.73 1246.48 390.24 1283.89 353.71"/>
  <polygon class="cls-3" points="1424.08 218.68 1398.47 215.28 1418.77 235.02 1424.08 218.68"/>
  <polygon class="cls-3" points="1202.29 290.7 1196.42 276.06 1184.25 300.69 1198.97 299.22 1202.29 290.7"/>
</svg>